<svg xmlns="http://www.w3.org/2000/svg" role="img" aria-labelledby="title description" viewBox="0 0 681 152" width="681" height="152">
  <title id="title">Attività GitHub pubblica di Vincenzo Di Mauro</title>
  <desc id="description">Calendario dei contributi pubblicamente visibili di dimaurovincenzo. Aggiornato il 17 luglio 2026.</desc>
  <style>
    .heading { fill: #1f2328; font: 600 16px -apple-system, BlinkMacSystemFont, "Segoe UI", sans-serif; }
    .updated { fill: #656d76; font: 12px -apple-system, BlinkMacSystemFont, "Segoe UI", sans-serif; }
    .level-0 { fill: #ebedf0; } .level-1 { fill: #9be9a8; } .level-2 { fill: #40c463; }
    .level-3 { fill: #30a14e; } .level-4 { fill: #216e39; }
    @media (prefers-color-scheme: dark) {
      .heading { fill: #f0f6fc; } .updated { fill: #8b949e; } .level-0 { fill: #161b22; }
    }
  </style>
  <text class="heading" x="24" y="22">Attività GitHub pubblica</text>
  <text class="updated" x="24" y="40">Aggiornato il 17 luglio 2026</text>
  <rect class="level-0" data-level="0" x="24" y="48" width="9" height="9" rx="2"><title>2025-07-13</title></rect>
  <rect class="level-0" data-level="0" x="24" y="60" width="9" height="9" rx="2"><title>2025-07-14</title></rect>
  <rect class="level-0" data-level="0" x="24" y="72" width="9" height="9" rx="2"><title>2025-07-15</title></rect>
  <rect class="level-0" data-level="0" x="24" y="84" width="9" height="9" rx="2"><title>2025-07-16</title></rect>
  <rect class="level-0" data-level="0" x="24" y="96" width="9" height="9" rx="2"><title>2025-07-17</title></rect>
  <rect class="level-0" data-level="0" x="24" y="108" width="9" height="9" rx="2"><title>2025-07-18</title></rect>
  <rect class="level-0" data-level="0" x="24" y="120" width="9" height="9" rx="2"><title>2025-07-19</title></rect>
  <rect class="level-0" data-level="0" x="36" y="48" width="9" height="9" rx="2"><title>2025-07-20</title></rect>
  <rect class="level-0" data-level="0" x="36" y="60" width="9" height="9" rx="2"><title>2025-07-21</title></rect>
  <rect class="level-0" data-level="0" x="36" y="72" width="9" height="9" rx="2"><title>2025-07-22</title></rect>
  <rect class="level-0" data-level="0" x="36" y="84" width="9" height="9" rx="2"><title>2025-07-23</title></rect>
  <rect class="level-0" data-level="0" x="36" y="96" width="9" height="9" rx="2"><title>2025-07-24</title></rect>
  <rect class="level-0" data-level="0" x="36" y="108" width="9" height="9" rx="2"><title>2025-07-25</title></rect>
  <rect class="level-0" data-level="0" x="36" y="120" width="9" height="9" rx="2"><title>2025-07-26</title></rect>
  <rect class="level-0" data-level="0" x="48" y="48" width="9" height="9" rx="2"><title>2025-07-27</title></rect>
  <rect class="level-0" data-level="0" x="48" y="60" width="9" height="9" rx="2"><title>2025-07-28</title></rect>
  <rect class="level-0" data-level="0" x="48" y="72" width="9" height="9" rx="2"><title>2025-07-29</title></rect>
  <rect class="level-0" data-level="0" x="48" y="84" width="9" height="9" rx="2"><title>2025-07-30</title></rect>
  <rect class="level-0" data-level="0" x="48" y="96" width="9" height="9" rx="2"><title>2025-07-31</title></rect>
  <rect class="level-0" data-level="0" x="48" y="108" width="9" height="9" rx="2"><title>2025-08-01</title></rect>
  <rect class="level-0" data-level="0" x="48" y="120" width="9" height="9" rx="2"><title>2025-08-02</title></rect>
  <rect class="level-0" data-level="0" x="60" y="48" width="9" height="9" rx="2"><title>2025-08-03</title></rect>
  <rect class="level-0" data-level="0" x="60" y="60" width="9" height="9" rx="2"><title>2025-08-04</title></rect>
  <rect class="level-0" data-level="0" x="60" y="72" width="9" height="9" rx="2"><title>2025-08-05</title></rect>
  <rect class="level-0" data-level="0" x="60" y="84" width="9" height="9" rx="2"><title>2025-08-06</title></rect>
  <rect class="level-0" data-level="0" x="60" y="96" width="9" height="9" rx="2"><title>2025-08-07</title></rect>
  <rect class="level-0" data-level="0" x="60" y="108" width="9" height="9" rx="2"><title>2025-08-08</title></rect>
  <rect class="level-0" data-level="0" x="60" y="120" width="9" height="9" rx="2"><title>2025-08-09</title></rect>
  <rect class="level-0" data-level="0" x="72" y="48" width="9" height="9" rx="2"><title>2025-08-10</title></rect>
  <rect class="level-0" data-level="0" x="72" y="60" width="9" height="9" rx="2"><title>2025-08-11</title></rect>
  <rect class="level-0" data-level="0" x="72" y="72" width="9" height="9" rx="2"><title>2025-08-12</title></rect>
  <rect class="level-0" data-level="0" x="72" y="84" width="9" height="9" rx="2"><title>2025-08-13</title></rect>
  <rect class="level-0" data-level="0" x="72" y="96" width="9" height="9" rx="2"><title>2025-08-14</title></rect>
  <rect class="level-0" data-level="0" x="72" y="108" width="9" height="9" rx="2"><title>2025-08-15</title></rect>
  <rect class="level-0" data-level="0" x="72" y="120" width="9" height="9" rx="2"><title>2025-08-16</title></rect>
  <rect class="level-0" data-level="0" x="84" y="48" width="9" height="9" rx="2"><title>2025-08-17</title></rect>
  <rect class="level-0" data-level="0" x="84" y="60" width="9" height="9" rx="2"><title>2025-08-18</title></rect>
  <rect class="level-0" data-level="0" x="84" y="72" width="9" height="9" rx="2"><title>2025-08-19</title></rect>
  <rect class="level-0" data-level="0" x="84" y="84" width="9" height="9" rx="2"><title>2025-08-20</title></rect>
  <rect class="level-0" data-level="0" x="84" y="96" width="9" height="9" rx="2"><title>2025-08-21</title></rect>
  <rect class="level-0" data-level="0" x="84" y="108" width="9" height="9" rx="2"><title>2025-08-22</title></rect>
  <rect class="level-0" data-level="0" x="84" y="120" width="9" height="9" rx="2"><title>2025-08-23</title></rect>
  <rect class="level-0" data-level="0" x="96" y="48" width="9" height="9" rx="2"><title>2025-08-24</title></rect>
  <rect class="level-0" data-level="0" x="96" y="60" width="9" height="9" rx="2"><title>2025-08-25</title></rect>
  <rect class="level-0" data-level="0" x="96" y="72" width="9" height="9" rx="2"><title>2025-08-26</title></rect>
  <rect class="level-0" data-level="0" x="96" y="84" width="9" height="9" rx="2"><title>2025-08-27</title></rect>
  <rect class="level-0" data-level="0" x="96" y="96" width="9" height="9" rx="2"><title>2025-08-28</title></rect>
  <rect class="level-0" data-level="0" x="96" y="108" width="9" height="9" rx="2"><title>2025-08-29</title></rect>
  <rect class="level-0" data-level="0" x="96" y="120" width="9" height="9" rx="2"><title>2025-08-30</title></rect>
  <rect class="level-0" data-level="0" x="108" y="48" width="9" height="9" rx="2"><title>2025-08-31</title></rect>
  <rect class="level-0" data-level="0" x="108" y="60" width="9" height="9" rx="2"><title>2025-09-01</title></rect>
  <rect class="level-0" data-level="0" x="108" y="72" width="9" height="9" rx="2"><title>2025-09-02</title></rect>
  <rect class="level-0" data-level="0" x="108" y="84" width="9" height="9" rx="2"><title>2025-09-03</title></rect>
  <rect class="level-0" data-level="0" x="108" y="96" width="9" height="9" rx="2"><title>2025-09-04</title></rect>
  <rect class="level-0" data-level="0" x="108" y="108" width="9" height="9" rx="2"><title>2025-09-05</title></rect>
  <rect class="level-0" data-level="0" x="108" y="120" width="9" height="9" rx="2"><title>2025-09-06</title></rect>
  <rect class="level-0" data-level="0" x="120" y="48" width="9" height="9" rx="2"><title>2025-09-07</title></rect>
  <rect class="level-0" data-level="0" x="120" y="60" width="9" height="9" rx="2"><title>2025-09-08</title></rect>
  <rect class="level-0" data-level="0" x="120" y="72" width="9" height="9" rx="2"><title>2025-09-09</title></rect>
  <rect class="level-0" data-level="0" x="120" y="84" width="9" height="9" rx="2"><title>2025-09-10</title></rect>
  <rect class="level-0" data-level="0" x="120" y="96" width="9" height="9" rx="2"><title>2025-09-11</title></rect>
  <rect class="level-0" data-level="0" x="120" y="108" width="9" height="9" rx="2"><title>2025-09-12</title></rect>
  <rect class="level-0" data-level="0" x="120" y="120" width="9" height="9" rx="2"><title>2025-09-13</title></rect>
  <rect class="level-0" data-level="0" x="132" y="48" width="9" height="9" rx="2"><title>2025-09-14</title></rect>
  <rect class="level-0" data-level="0" x="132" y="60" width="9" height="9" rx="2"><title>2025-09-15</title></rect>
  <rect class="level-0" data-level="0" x="132" y="72" width="9" height="9" rx="2"><title>2025-09-16</title></rect>
  <rect class="level-0" data-level="0" x="132" y="84" width="9" height="9" rx="2"><title>2025-09-17</title></rect>
  <rect class="level-0" data-level="0" x="132" y="96" width="9" height="9" rx="2"><title>2025-09-18</title></rect>
  <rect class="level-0" data-level="0" x="132" y="108" width="9" height="9" rx="2"><title>2025-09-19</title></rect>
  <rect class="level-0" data-level="0" x="132" y="120" width="9" height="9" rx="2"><title>2025-09-20</title></rect>
  <rect class="level-0" data-level="0" x="144" y="48" width="9" height="9" rx="2"><title>2025-09-21</title></rect>
  <rect class="level-0" data-level="0" x="144" y="60" width="9" height="9" rx="2"><title>2025-09-22</title></rect>
  <rect class="level-0" data-level="0" x="144" y="72" width="9" height="9" rx="2"><title>2025-09-23</title></rect>
  <rect class="level-0" data-level="0" x="144" y="84" width="9" height="9" rx="2"><title>2025-09-24</title></rect>
  <rect class="level-0" data-level="0" x="144" y="96" width="9" height="9" rx="2"><title>2025-09-25</title></rect>
  <rect class="level-0" data-level="0" x="144" y="108" width="9" height="9" rx="2"><title>2025-09-26</title></rect>
  <rect class="level-0" data-level="0" x="144" y="120" width="9" height="9" rx="2"><title>2025-09-27</title></rect>
  <rect class="level-0" data-level="0" x="156" y="48" width="9" height="9" rx="2"><title>2025-09-28</title></rect>
  <rect class="level-0" data-level="0" x="156" y="60" width="9" height="9" rx="2"><title>2025-09-29</title></rect>
  <rect class="level-0" data-level="0" x="156" y="72" width="9" height="9" rx="2"><title>2025-09-30</title></rect>
  <rect class="level-0" data-level="0" x="156" y="84" width="9" height="9" rx="2"><title>2025-10-01</title></rect>
  <rect class="level-0" data-level="0" x="156" y="96" width="9" height="9" rx="2"><title>2025-10-02</title></rect>
  <rect class="level-0" data-level="0" x="156" y="108" width="9" height="9" rx="2"><title>2025-10-03</title></rect>
  <rect class="level-0" data-level="0" x="156" y="120" width="9" height="9" rx="2"><title>2025-10-04</title></rect>
  <rect class="level-0" data-level="0" x="168" y="48" width="9" height="9" rx="2"><title>2025-10-05</title></rect>
  <rect class="level-0" data-level="0" x="168" y="60" width="9" height="9" rx="2"><title>2025-10-06</title></rect>
  <rect class="level-0" data-level="0" x="168" y="72" width="9" height="9" rx="2"><title>2025-10-07</title></rect>
  <rect class="level-0" data-level="0" x="168" y="84" width="9" height="9" rx="2"><title>2025-10-08</title></rect>
  <rect class="level-0" data-level="0" x="168" y="96" width="9" height="9" rx="2"><title>2025-10-09</title></rect>
  <rect class="level-0" data-level="0" x="168" y="108" width="9" height="9" rx="2"><title>2025-10-10</title></rect>
  <rect class="level-0" data-level="0" x="168" y="120" width="9" height="9" rx="2"><title>2025-10-11</title></rect>
  <rect class="level-0" data-level="0" x="180" y="48" width="9" height="9" rx="2"><title>2025-10-12</title></rect>
  <rect class="level-0" data-level="0" x="180" y="60" width="9" height="9" rx="2"><title>2025-10-13</title></rect>
  <rect class="level-0" data-level="0" x="180" y="72" width="9" height="9" rx="2"><title>2025-10-14</title></rect>
  <rect class="level-0" data-level="0" x="180" y="84" width="9" height="9" rx="2"><title>2025-10-15</title></rect>
  <rect class="level-0" data-level="0" x="180" y="96" width="9" height="9" rx="2"><title>2025-10-16</title></rect>
  <rect class="level-0" data-level="0" x="180" y="108" width="9" height="9" rx="2"><title>2025-10-17</title></rect>
  <rect class="level-0" data-level="0" x="180" y="120" width="9" height="9" rx="2"><title>2025-10-18</title></rect>
  <rect class="level-0" data-level="0" x="192" y="48" width="9" height="9" rx="2"><title>2025-10-19</title></rect>
  <rect class="level-0" data-level="0" x="192" y="60" width="9" height="9" rx="2"><title>2025-10-20</title></rect>
  <rect class="level-0" data-level="0" x="192" y="72" width="9" height="9" rx="2"><title>2025-10-21</title></rect>
  <rect class="level-0" data-level="0" x="192" y="84" width="9" height="9" rx="2"><title>2025-10-22</title></rect>
  <rect class="level-0" data-level="0" x="192" y="96" width="9" height="9" rx="2"><title>2025-10-23</title></rect>
  <rect class="level-0" data-level="0" x="192" y="108" width="9" height="9" rx="2"><title>2025-10-24</title></rect>
  <rect class="level-0" data-level="0" x="192" y="120" width="9" height="9" rx="2"><title>2025-10-25</title></rect>
  <rect class="level-0" data-level="0" x="204" y="48" width="9" height="9" rx="2"><title>2025-10-26</title></rect>
  <rect class="level-0" data-level="0" x="204" y="60" width="9" height="9" rx="2"><title>2025-10-27</title></rect>
  <rect class="level-0" data-level="0" x="204" y="72" width="9" height="9" rx="2"><title>2025-10-28</title></rect>
  <rect class="level-0" data-level="0" x="204" y="84" width="9" height="9" rx="2"><title>2025-10-29</title></rect>
  <rect class="level-0" data-level="0" x="204" y="96" width="9" height="9" rx="2"><title>2025-10-30</title></rect>
  <rect class="level-0" data-level="0" x="204" y="108" width="9" height="9" rx="2"><title>2025-10-31</title></rect>
  <rect class="level-0" data-level="0" x="204" y="120" width="9" height="9" rx="2"><title>2025-11-01</title></rect>
  <rect class="level-0" data-level="0" x="216" y="48" width="9" height="9" rx="2"><title>2025-11-02</title></rect>
  <rect class="level-0" data-level="0" x="216" y="60" width="9" height="9" rx="2"><title>2025-11-03</title></rect>
  <rect class="level-0" data-level="0" x="216" y="72" width="9" height="9" rx="2"><title>2025-11-04</title></rect>
  <rect class="level-0" data-level="0" x="216" y="84" width="9" height="9" rx="2"><title>2025-11-05</title></rect>
  <rect class="level-0" data-level="0" x="216" y="96" width="9" height="9" rx="2"><title>2025-11-06</title></rect>
  <rect class="level-0" data-level="0" x="216" y="108" width="9" height="9" rx="2"><title>2025-11-07</title></rect>
  <rect class="level-0" data-level="0" x="216" y="120" width="9" height="9" rx="2"><title>2025-11-08</title></rect>
  <rect class="level-0" data-level="0" x="228" y="48" width="9" height="9" rx="2"><title>2025-11-09</title></rect>
  <rect class="level-0" data-level="0" x="228" y="60" width="9" height="9" rx="2"><title>2025-11-10</title></rect>
  <rect class="level-0" data-level="0" x="228" y="72" width="9" height="9" rx="2"><title>2025-11-11</title></rect>
  <rect class="level-0" data-level="0" x="228" y="84" width="9" height="9" rx="2"><title>2025-11-12</title></rect>
  <rect class="level-0" data-level="0" x="228" y="96" width="9" height="9" rx="2"><title>2025-11-13</title></rect>
  <rect class="level-0" data-level="0" x="228" y="108" width="9" height="9" rx="2"><title>2025-11-14</title></rect>
  <rect class="level-0" data-level="0" x="228" y="120" width="9" height="9" rx="2"><title>2025-11-15</title></rect>
  <rect class="level-0" data-level="0" x="240" y="48" width="9" height="9" rx="2"><title>2025-11-16</title></rect>
  <rect class="level-0" data-level="0" x="240" y="60" width="9" height="9" rx="2"><title>2025-11-17</title></rect>
  <rect class="level-0" data-level="0" x="240" y="72" width="9" height="9" rx="2"><title>2025-11-18</title></rect>
  <rect class="level-0" data-level="0" x="240" y="84" width="9" height="9" rx="2"><title>2025-11-19</title></rect>
  <rect class="level-0" data-level="0" x="240" y="96" width="9" height="9" rx="2"><title>2025-11-20</title></rect>
  <rect class="level-0" data-level="0" x="240" y="108" width="9" height="9" rx="2"><title>2025-11-21</title></rect>
  <rect class="level-0" data-level="0" x="240" y="120" width="9" height="9" rx="2"><title>2025-11-22</title></rect>
  <rect class="level-0" data-level="0" x="252" y="48" width="9" height="9" rx="2"><title>2025-11-23</title></rect>
  <rect class="level-0" data-level="0" x="252" y="60" width="9" height="9" rx="2"><title>2025-11-24</title></rect>
  <rect class="level-0" data-level="0" x="252" y="72" width="9" height="9" rx="2"><title>2025-11-25</title></rect>
  <rect class="level-0" data-level="0" x="252" y="84" width="9" height="9" rx="2"><title>2025-11-26</title></rect>
  <rect class="level-0" data-level="0" x="252" y="96" width="9" height="9" rx="2"><title>2025-11-27</title></rect>
  <rect class="level-0" data-level="0" x="252" y="108" width="9" height="9" rx="2"><title>2025-11-28</title></rect>
  <rect class="level-0" data-level="0" x="252" y="120" width="9" height="9" rx="2"><title>2025-11-29</title></rect>
  <rect class="level-0" data-level="0" x="264" y="48" width="9" height="9" rx="2"><title>2025-11-30</title></rect>
  <rect class="level-0" data-level="0" x="264" y="60" width="9" height="9" rx="2"><title>2025-12-01</title></rect>
  <rect class="level-0" data-level="0" x="264" y="72" width="9" height="9" rx="2"><title>2025-12-02</title></rect>
  <rect class="level-0" data-level="0" x="264" y="84" width="9" height="9" rx="2"><title>2025-12-03</title></rect>
  <rect class="level-0" data-level="0" x="264" y="96" width="9" height="9" rx="2"><title>2025-12-04</title></rect>
  <rect class="level-0" data-level="0" x="264" y="108" width="9" height="9" rx="2"><title>2025-12-05</title></rect>
  <rect class="level-0" data-level="0" x="264" y="120" width="9" height="9" rx="2"><title>2025-12-06</title></rect>
  <rect class="level-0" data-level="0" x="276" y="48" width="9" height="9" rx="2"><title>2025-12-07</title></rect>
  <rect class="level-0" data-level="0" x="276" y="60" width="9" height="9" rx="2"><title>2025-12-08</title></rect>
  <rect class="level-0" data-level="0" x="276" y="72" width="9" height="9" rx="2"><title>2025-12-09</title></rect>
  <rect class="level-0" data-level="0" x="276" y="84" width="9" height="9" rx="2"><title>2025-12-10</title></rect>
  <rect class="level-0" data-level="0" x="276" y="96" width="9" height="9" rx="2"><title>2025-12-11</title></rect>
  <rect class="level-0" data-level="0" x="276" y="108" width="9" height="9" rx="2"><title>2025-12-12</title></rect>
  <rect class="level-0" data-level="0" x="276" y="120" width="9" height="9" rx="2"><title>2025-12-13</title></rect>
  <rect class="level-0" data-level="0" x="288" y="48" width="9" height="9" rx="2"><title>2025-12-14</title></rect>
  <rect class="level-0" data-level="0" x="288" y="60" width="9" height="9" rx="2"><title>2025-12-15</title></rect>
  <rect class="level-0" data-level="0" x="288" y="72" width="9" height="9" rx="2"><title>2025-12-16</title></rect>
  <rect class="level-0" data-level="0" x="288" y="84" width="9" height="9" rx="2"><title>2025-12-17</title></rect>
  <rect class="level-0" data-level="0" x="288" y="96" width="9" height="9" rx="2"><title>2025-12-18</title></rect>
  <rect class="level-0" data-level="0" x="288" y="108" width="9" height="9" rx="2"><title>2025-12-19</title></rect>
  <rect class="level-0" data-level="0" x="288" y="120" width="9" height="9" rx="2"><title>2025-12-20</title></rect>
  <rect class="level-0" data-level="0" x="300" y="48" width="9" height="9" rx="2"><title>2025-12-21</title></rect>
  <rect class="level-0" data-level="0" x="300" y="60" width="9" height="9" rx="2"><title>2025-12-22</title></rect>
  <rect class="level-0" data-level="0" x="300" y="72" width="9" height="9" rx="2"><title>2025-12-23</title></rect>
  <rect class="level-0" data-level="0" x="300" y="84" width="9" height="9" rx="2"><title>2025-12-24</title></rect>
  <rect class="level-0" data-level="0" x="300" y="96" width="9" height="9" rx="2"><title>2025-12-25</title></rect>
  <rect class="level-0" data-level="0" x="300" y="108" width="9" height="9" rx="2"><title>2025-12-26</title></rect>
  <rect class="level-0" data-level="0" x="300" y="120" width="9" height="9" rx="2"><title>2025-12-27</title></rect>
  <rect class="level-0" data-level="0" x="312" y="48" width="9" height="9" rx="2"><title>2025-12-28</title></rect>
  <rect class="level-0" data-level="0" x="312" y="60" width="9" height="9" rx="2"><title>2025-12-29</title></rect>
  <rect class="level-0" data-level="0" x="312" y="72" width="9" height="9" rx="2"><title>2025-12-30</title></rect>
  <rect class="level-0" data-level="0" x="312" y="84" width="9" height="9" rx="2"><title>2025-12-31</title></rect>
  <rect class="level-0" data-level="0" x="312" y="96" width="9" height="9" rx="2"><title>2026-01-01</title></rect>
  <rect class="level-0" data-level="0" x="312" y="108" width="9" height="9" rx="2"><title>2026-01-02</title></rect>
  <rect class="level-0" data-level="0" x="312" y="120" width="9" height="9" rx="2"><title>2026-01-03</title></rect>
  <rect class="level-0" data-level="0" x="324" y="48" width="9" height="9" rx="2"><title>2026-01-04</title></rect>
  <rect class="level-0" data-level="0" x="324" y="60" width="9" height="9" rx="2"><title>2026-01-05</title></rect>
  <rect class="level-0" data-level="0" x="324" y="72" width="9" height="9" rx="2"><title>2026-01-06</title></rect>
  <rect class="level-0" data-level="0" x="324" y="84" width="9" height="9" rx="2"><title>2026-01-07</title></rect>
  <rect class="level-0" data-level="0" x="324" y="96" width="9" height="9" rx="2"><title>2026-01-08</title></rect>
  <rect class="level-0" data-level="0" x="324" y="108" width="9" height="9" rx="2"><title>2026-01-09</title></rect>
  <rect class="level-0" data-level="0" x="324" y="120" width="9" height="9" rx="2"><title>2026-01-10</title></rect>
  <rect class="level-0" data-level="0" x="336" y="48" width="9" height="9" rx="2"><title>2026-01-11</title></rect>
  <rect class="level-0" data-level="0" x="336" y="60" width="9" height="9" rx="2"><title>2026-01-12</title></rect>
  <rect class="level-0" data-level="0" x="336" y="72" width="9" height="9" rx="2"><title>2026-01-13</title></rect>
  <rect class="level-0" data-level="0" x="336" y="84" width="9" height="9" rx="2"><title>2026-01-14</title></rect>
  <rect class="level-0" data-level="0" x="336" y="96" width="9" height="9" rx="2"><title>2026-01-15</title></rect>
  <rect class="level-0" data-level="0" x="336" y="108" width="9" height="9" rx="2"><title>2026-01-16</title></rect>
  <rect class="level-0" data-level="0" x="336" y="120" width="9" height="9" rx="2"><title>2026-01-17</title></rect>
  <rect class="level-0" data-level="0" x="348" y="48" width="9" height="9" rx="2"><title>2026-01-18</title></rect>
  <rect class="level-0" data-level="0" x="348" y="60" width="9" height="9" rx="2"><title>2026-01-19</title></rect>
  <rect class="level-0" data-level="0" x="348" y="72" width="9" height="9" rx="2"><title>2026-01-20</title></rect>
  <rect class="level-0" data-level="0" x="348" y="84" width="9" height="9" rx="2"><title>2026-01-21</title></rect>
  <rect class="level-0" data-level="0" x="348" y="96" width="9" height="9" rx="2"><title>2026-01-22</title></rect>
  <rect class="level-0" data-level="0" x="348" y="108" width="9" height="9" rx="2"><title>2026-01-23</title></rect>
  <rect class="level-0" data-level="0" x="348" y="120" width="9" height="9" rx="2"><title>2026-01-24</title></rect>
  <rect class="level-0" data-level="0" x="360" y="48" width="9" height="9" rx="2"><title>2026-01-25</title></rect>
  <rect class="level-0" data-level="0" x="360" y="60" width="9" height="9" rx="2"><title>2026-01-26</title></rect>
  <rect class="level-0" data-level="0" x="360" y="72" width="9" height="9" rx="2"><title>2026-01-27</title></rect>
  <rect class="level-0" data-level="0" x="360" y="84" width="9" height="9" rx="2"><title>2026-01-28</title></rect>
  <rect class="level-0" data-level="0" x="360" y="96" width="9" height="9" rx="2"><title>2026-01-29</title></rect>
  <rect class="level-0" data-level="0" x="360" y="108" width="9" height="9" rx="2"><title>2026-01-30</title></rect>
  <rect class="level-0" data-level="0" x="360" y="120" width="9" height="9" rx="2"><title>2026-01-31</title></rect>
  <rect class="level-0" data-level="0" x="372" y="48" width="9" height="9" rx="2"><title>2026-02-01</title></rect>
  <rect class="level-0" data-level="0" x="372" y="60" width="9" height="9" rx="2"><title>2026-02-02</title></rect>
  <rect class="level-0" data-level="0" x="372" y="72" width="9" height="9" rx="2"><title>2026-02-03</title></rect>
  <rect class="level-0" data-level="0" x="372" y="84" width="9" height="9" rx="2"><title>2026-02-04</title></rect>
  <rect class="level-0" data-level="0" x="372" y="96" width="9" height="9" rx="2"><title>2026-02-05</title></rect>
  <rect class="level-0" data-level="0" x="372" y="108" width="9" height="9" rx="2"><title>2026-02-06</title></rect>
  <rect class="level-0" data-level="0" x="372" y="120" width="9" height="9" rx="2"><title>2026-02-07</title></rect>
  <rect class="level-0" data-level="0" x="384" y="48" width="9" height="9" rx="2"><title>2026-02-08</title></rect>
  <rect class="level-0" data-level="0" x="384" y="60" width="9" height="9" rx="2"><title>2026-02-09</title></rect>
  <rect class="level-0" data-level="0" x="384" y="72" width="9" height="9" rx="2"><title>2026-02-10</title></rect>
  <rect class="level-0" data-level="0" x="384" y="84" width="9" height="9" rx="2"><title>2026-02-11</title></rect>
  <rect class="level-0" data-level="0" x="384" y="96" width="9" height="9" rx="2"><title>2026-02-12</title></rect>
  <rect class="level-0" data-level="0" x="384" y="108" width="9" height="9" rx="2"><title>2026-02-13</title></rect>
  <rect class="level-0" data-level="0" x="384" y="120" width="9" height="9" rx="2"><title>2026-02-14</title></rect>
  <rect class="level-0" data-level="0" x="396" y="48" width="9" height="9" rx="2"><title>2026-02-15</title></rect>
  <rect class="level-0" data-level="0" x="396" y="60" width="9" height="9" rx="2"><title>2026-02-16</title></rect>
  <rect class="level-0" data-level="0" x="396" y="72" width="9" height="9" rx="2"><title>2026-02-17</title></rect>
  <rect class="level-0" data-level="0" x="396" y="84" width="9" height="9" rx="2"><title>2026-02-18</title></rect>
  <rect class="level-0" data-level="0" x="396" y="96" width="9" height="9" rx="2"><title>2026-02-19</title></rect>
  <rect class="level-0" data-level="0" x="396" y="108" width="9" height="9" rx="2"><title>2026-02-20</title></rect>
  <rect class="level-0" data-level="0" x="396" y="120" width="9" height="9" rx="2"><title>2026-02-21</title></rect>
  <rect class="level-0" data-level="0" x="408" y="48" width="9" height="9" rx="2"><title>2026-02-22</title></rect>
  <rect class="level-0" data-level="0" x="408" y="60" width="9" height="9" rx="2"><title>2026-02-23</title></rect>
  <rect class="level-0" data-level="0" x="408" y="72" width="9" height="9" rx="2"><title>2026-02-24</title></rect>
  <rect class="level-0" data-level="0" x="408" y="84" width="9" height="9" rx="2"><title>2026-02-25</title></rect>
  <rect class="level-0" data-level="0" x="408" y="96" width="9" height="9" rx="2"><title>2026-02-26</title></rect>
  <rect class="level-0" data-level="0" x="408" y="108" width="9" height="9" rx="2"><title>2026-02-27</title></rect>
  <rect class="level-0" data-level="0" x="408" y="120" width="9" height="9" rx="2"><title>2026-02-28</title></rect>
  <rect class="level-0" data-level="0" x="420" y="48" width="9" height="9" rx="2"><title>2026-03-01</title></rect>
  <rect class="level-0" data-level="0" x="420" y="60" width="9" height="9" rx="2"><title>2026-03-02</title></rect>
  <rect class="level-0" data-level="0" x="420" y="72" width="9" height="9" rx="2"><title>2026-03-03</title></rect>
  <rect class="level-0" data-level="0" x="420" y="84" width="9" height="9" rx="2"><title>2026-03-04</title></rect>
  <rect class="level-0" data-level="0" x="420" y="96" width="9" height="9" rx="2"><title>2026-03-05</title></rect>
  <rect class="level-0" data-level="0" x="420" y="108" width="9" height="9" rx="2"><title>2026-03-06</title></rect>
  <rect class="level-0" data-level="0" x="420" y="120" width="9" height="9" rx="2"><title>2026-03-07</title></rect>
  <rect class="level-0" data-level="0" x="432" y="48" width="9" height="9" rx="2"><title>2026-03-08</title></rect>
  <rect class="level-0" data-level="0" x="432" y="60" width="9" height="9" rx="2"><title>2026-03-09</title></rect>
  <rect class="level-0" data-level="0" x="432" y="72" width="9" height="9" rx="2"><title>2026-03-10</title></rect>
  <rect class="level-0" data-level="0" x="432" y="84" width="9" height="9" rx="2"><title>2026-03-11</title></rect>
  <rect class="level-0" data-level="0" x="432" y="96" width="9" height="9" rx="2"><title>2026-03-12</title></rect>
  <rect class="level-0" data-level="0" x="432" y="108" width="9" height="9" rx="2"><title>2026-03-13</title></rect>
  <rect class="level-0" data-level="0" x="432" y="120" width="9" height="9" rx="2"><title>2026-03-14</title></rect>
  <rect class="level-0" data-level="0" x="444" y="48" width="9" height="9" rx="2"><title>2026-03-15</title></rect>
  <rect class="level-0" data-level="0" x="444" y="60" width="9" height="9" rx="2"><title>2026-03-16</title></rect>
  <rect class="level-0" data-level="0" x="444" y="72" width="9" height="9" rx="2"><title>2026-03-17</title></rect>
  <rect class="level-0" data-level="0" x="444" y="84" width="9" height="9" rx="2"><title>2026-03-18</title></rect>
  <rect class="level-0" data-level="0" x="444" y="96" width="9" height="9" rx="2"><title>2026-03-19</title></rect>
  <rect class="level-0" data-level="0" x="444" y="108" width="9" height="9" rx="2"><title>2026-03-20</title></rect>
  <rect class="level-0" data-level="0" x="444" y="120" width="9" height="9" rx="2"><title>2026-03-21</title></rect>
  <rect class="level-0" data-level="0" x="456" y="48" width="9" height="9" rx="2"><title>2026-03-22</title></rect>
  <rect class="level-0" data-level="0" x="456" y="60" width="9" height="9" rx="2"><title>2026-03-23</title></rect>
  <rect class="level-0" data-level="0" x="456" y="72" width="9" height="9" rx="2"><title>2026-03-24</title></rect>
  <rect class="level-0" data-level="0" x="456" y="84" width="9" height="9" rx="2"><title>2026-03-25</title></rect>
  <rect class="level-0" data-level="0" x="456" y="96" width="9" height="9" rx="2"><title>2026-03-26</title></rect>
  <rect class="level-0" data-level="0" x="456" y="108" width="9" height="9" rx="2"><title>2026-03-27</title></rect>
  <rect class="level-0" data-level="0" x="456" y="120" width="9" height="9" rx="2"><title>2026-03-28</title></rect>
  <rect class="level-0" data-level="0" x="468" y="48" width="9" height="9" rx="2"><title>2026-03-29</title></rect>
  <rect class="level-0" data-level="0" x="468" y="60" width="9" height="9" rx="2"><title>2026-03-30</title></rect>
  <rect class="level-0" data-level="0" x="468" y="72" width="9" height="9" rx="2"><title>2026-03-31</title></rect>
  <rect class="level-0" data-level="0" x="468" y="84" width="9" height="9" rx="2"><title>2026-04-01</title></rect>
  <rect class="level-0" data-level="0" x="468" y="96" width="9" height="9" rx="2"><title>2026-04-02</title></rect>
  <rect class="level-0" data-level="0" x="468" y="108" width="9" height="9" rx="2"><title>2026-04-03</title></rect>
  <rect class="level-0" data-level="0" x="468" y="120" width="9" height="9" rx="2"><title>2026-04-04</title></rect>
  <rect class="level-0" data-level="0" x="480" y="48" width="9" height="9" rx="2"><title>2026-04-05</title></rect>
  <rect class="level-0" data-level="0" x="480" y="60" width="9" height="9" rx="2"><title>2026-04-06</title></rect>
  <rect class="level-0" data-level="0" x="480" y="72" width="9" height="9" rx="2"><title>2026-04-07</title></rect>
  <rect class="level-0" data-level="0" x="480" y="84" width="9" height="9" rx="2"><title>2026-04-08</title></rect>
  <rect class="level-0" data-level="0" x="480" y="96" width="9" height="9" rx="2"><title>2026-04-09</title></rect>
  <rect class="level-0" data-level="0" x="480" y="108" width="9" height="9" rx="2"><title>2026-04-10</title></rect>
  <rect class="level-0" data-level="0" x="480" y="120" width="9" height="9" rx="2"><title>2026-04-11</title></rect>
  <rect class="level-0" data-level="0" x="492" y="48" width="9" height="9" rx="2"><title>2026-04-12</title></rect>
  <rect class="level-0" data-level="0" x="492" y="60" width="9" height="9" rx="2"><title>2026-04-13</title></rect>
  <rect class="level-0" data-level="0" x="492" y="72" width="9" height="9" rx="2"><title>2026-04-14</title></rect>
  <rect class="level-0" data-level="0" x="492" y="84" width="9" height="9" rx="2"><title>2026-04-15</title></rect>
  <rect class="level-0" data-level="0" x="492" y="96" width="9" height="9" rx="2"><title>2026-04-16</title></rect>
  <rect class="level-0" data-level="0" x="492" y="108" width="9" height="9" rx="2"><title>2026-04-17</title></rect>
  <rect class="level-0" data-level="0" x="492" y="120" width="9" height="9" rx="2"><title>2026-04-18</title></rect>
  <rect class="level-0" data-level="0" x="504" y="48" width="9" height="9" rx="2"><title>2026-04-19</title></rect>
  <rect class="level-0" data-level="0" x="504" y="60" width="9" height="9" rx="2"><title>2026-04-20</title></rect>
  <rect class="level-0" data-level="0" x="504" y="72" width="9" height="9" rx="2"><title>2026-04-21</title></rect>
  <rect class="level-0" data-level="0" x="504" y="84" width="9" height="9" rx="2"><title>2026-04-22</title></rect>
  <rect class="level-0" data-level="0" x="504" y="96" width="9" height="9" rx="2"><title>2026-04-23</title></rect>
  <rect class="level-0" data-level="0" x="504" y="108" width="9" height="9" rx="2"><title>2026-04-24</title></rect>
  <rect class="level-0" data-level="0" x="504" y="120" width="9" height="9" rx="2"><title>2026-04-25</title></rect>
  <rect class="level-0" data-level="0" x="516" y="48" width="9" height="9" rx="2"><title>2026-04-26</title></rect>
  <rect class="level-0" data-level="0" x="516" y="60" width="9" height="9" rx="2"><title>2026-04-27</title></rect>
  <rect class="level-0" data-level="0" x="516" y="72" width="9" height="9" rx="2"><title>2026-04-28</title></rect>
  <rect class="level-0" data-level="0" x="516" y="84" width="9" height="9" rx="2"><title>2026-04-29</title></rect>
  <rect class="level-0" data-level="0" x="516" y="96" width="9" height="9" rx="2"><title>2026-04-30</title></rect>
  <rect class="level-0" data-level="0" x="516" y="108" width="9" height="9" rx="2"><title>2026-05-01</title></rect>
  <rect class="level-0" data-level="0" x="516" y="120" width="9" height="9" rx="2"><title>2026-05-02</title></rect>
  <rect class="level-0" data-level="0" x="528" y="48" width="9" height="9" rx="2"><title>2026-05-03</title></rect>
  <rect class="level-0" data-level="0" x="528" y="60" width="9" height="9" rx="2"><title>2026-05-04</title></rect>
  <rect class="level-0" data-level="0" x="528" y="72" width="9" height="9" rx="2"><title>2026-05-05</title></rect>
  <rect class="level-0" data-level="0" x="528" y="84" width="9" height="9" rx="2"><title>2026-05-06</title></rect>
  <rect class="level-0" data-level="0" x="528" y="96" width="9" height="9" rx="2"><title>2026-05-07</title></rect>
  <rect class="level-0" data-level="0" x="528" y="108" width="9" height="9" rx="2"><title>2026-05-08</title></rect>
  <rect class="level-0" data-level="0" x="528" y="120" width="9" height="9" rx="2"><title>2026-05-09</title></rect>
  <rect class="level-0" data-level="0" x="540" y="48" width="9" height="9" rx="2"><title>2026-05-10</title></rect>
  <rect class="level-0" data-level="0" x="540" y="60" width="9" height="9" rx="2"><title>2026-05-11</title></rect>
  <rect class="level-0" data-level="0" x="540" y="72" width="9" height="9" rx="2"><title>2026-05-12</title></rect>
  <rect class="level-0" data-level="0" x="540" y="84" width="9" height="9" rx="2"><title>2026-05-13</title></rect>
  <rect class="level-0" data-level="0" x="540" y="96" width="9" height="9" rx="2"><title>2026-05-14</title></rect>
  <rect class="level-0" data-level="0" x="540" y="108" width="9" height="9" rx="2"><title>2026-05-15</title></rect>
  <rect class="level-0" data-level="0" x="540" y="120" width="9" height="9" rx="2"><title>2026-05-16</title></rect>
  <rect class="level-0" data-level="0" x="552" y="48" width="9" height="9" rx="2"><title>2026-05-17</title></rect>
  <rect class="level-0" data-level="0" x="552" y="60" width="9" height="9" rx="2"><title>2026-05-18</title></rect>
  <rect class="level-0" data-level="0" x="552" y="72" width="9" height="9" rx="2"><title>2026-05-19</title></rect>
  <rect class="level-0" data-level="0" x="552" y="84" width="9" height="9" rx="2"><title>2026-05-20</title></rect>
  <rect class="level-0" data-level="0" x="552" y="96" width="9" height="9" rx="2"><title>2026-05-21</title></rect>
  <rect class="level-0" data-level="0" x="552" y="108" width="9" height="9" rx="2"><title>2026-05-22</title></rect>
  <rect class="level-0" data-level="0" x="552" y="120" width="9" height="9" rx="2"><title>2026-05-23</title></rect>
  <rect class="level-0" data-level="0" x="564" y="48" width="9" height="9" rx="2"><title>2026-05-24</title></rect>
  <rect class="level-0" data-level="0" x="564" y="60" width="9" height="9" rx="2"><title>2026-05-25</title></rect>
  <rect class="level-0" data-level="0" x="564" y="72" width="9" height="9" rx="2"><title>2026-05-26</title></rect>
  <rect class="level-0" data-level="0" x="564" y="84" width="9" height="9" rx="2"><title>2026-05-27</title></rect>
  <rect class="level-0" data-level="0" x="564" y="96" width="9" height="9" rx="2"><title>2026-05-28</title></rect>
  <rect class="level-0" data-level="0" x="564" y="108" width="9" height="9" rx="2"><title>2026-05-29</title></rect>
  <rect class="level-0" data-level="0" x="564" y="120" width="9" height="9" rx="2"><title>2026-05-30</title></rect>
  <rect class="level-0" data-level="0" x="576" y="48" width="9" height="9" rx="2"><title>2026-05-31</title></rect>
  <rect class="level-0" data-level="0" x="576" y="60" width="9" height="9" rx="2"><title>2026-06-01</title></rect>
  <rect class="level-0" data-level="0" x="576" y="72" width="9" height="9" rx="2"><title>2026-06-02</title></rect>
  <rect class="level-0" data-level="0" x="576" y="84" width="9" height="9" rx="2"><title>2026-06-03</title></rect>
  <rect class="level-0" data-level="0" x="576" y="96" width="9" height="9" rx="2"><title>2026-06-04</title></rect>
  <rect class="level-0" data-level="0" x="576" y="108" width="9" height="9" rx="2"><title>2026-06-05</title></rect>
  <rect class="level-0" data-level="0" x="576" y="120" width="9" height="9" rx="2"><title>2026-06-06</title></rect>
  <rect class="level-0" data-level="0" x="588" y="48" width="9" height="9" rx="2"><title>2026-06-07</title></rect>
  <rect class="level-0" data-level="0" x="588" y="60" width="9" height="9" rx="2"><title>2026-06-08</title></rect>
  <rect class="level-0" data-level="0" x="588" y="72" width="9" height="9" rx="2"><title>2026-06-09</title></rect>
  <rect class="level-0" data-level="0" x="588" y="84" width="9" height="9" rx="2"><title>2026-06-10</title></rect>
  <rect class="level-0" data-level="0" x="588" y="96" width="9" height="9" rx="2"><title>2026-06-11</title></rect>
  <rect class="level-0" data-level="0" x="588" y="108" width="9" height="9" rx="2"><title>2026-06-12</title></rect>
  <rect class="level-0" data-level="0" x="588" y="120" width="9" height="9" rx="2"><title>2026-06-13</title></rect>
  <rect class="level-0" data-level="0" x="600" y="48" width="9" height="9" rx="2"><title>2026-06-14</title></rect>
  <rect class="level-0" data-level="0" x="600" y="60" width="9" height="9" rx="2"><title>2026-06-15</title></rect>
  <rect class="level-0" data-level="0" x="600" y="72" width="9" height="9" rx="2"><title>2026-06-16</title></rect>
  <rect class="level-0" data-level="0" x="600" y="84" width="9" height="9" rx="2"><title>2026-06-17</title></rect>
  <rect class="level-0" data-level="0" x="600" y="96" width="9" height="9" rx="2"><title>2026-06-18</title></rect>
  <rect class="level-0" data-level="0" x="600" y="108" width="9" height="9" rx="2"><title>2026-06-19</title></rect>
  <rect class="level-0" data-level="0" x="600" y="120" width="9" height="9" rx="2"><title>2026-06-20</title></rect>
  <rect class="level-0" data-level="0" x="612" y="48" width="9" height="9" rx="2"><title>2026-06-21</title></rect>
  <rect class="level-0" data-level="0" x="612" y="60" width="9" height="9" rx="2"><title>2026-06-22</title></rect>
  <rect class="level-0" data-level="0" x="612" y="72" width="9" height="9" rx="2"><title>2026-06-23</title></rect>
  <rect class="level-0" data-level="0" x="612" y="84" width="9" height="9" rx="2"><title>2026-06-24</title></rect>
  <rect class="level-0" data-level="0" x="612" y="96" width="9" height="9" rx="2"><title>2026-06-25</title></rect>
  <rect class="level-0" data-level="0" x="612" y="108" width="9" height="9" rx="2"><title>2026-06-26</title></rect>
  <rect class="level-0" data-level="0" x="612" y="120" width="9" height="9" rx="2"><title>2026-06-27</title></rect>
  <rect class="level-0" data-level="0" x="624" y="48" width="9" height="9" rx="2"><title>2026-06-28</title></rect>
  <rect class="level-0" data-level="0" x="624" y="60" width="9" height="9" rx="2"><title>2026-06-29</title></rect>
  <rect class="level-0" data-level="0" x="624" y="72" width="9" height="9" rx="2"><title>2026-06-30</title></rect>
  <rect class="level-0" data-level="0" x="624" y="84" width="9" height="9" rx="2"><title>2026-07-01</title></rect>
  <rect class="level-0" data-level="0" x="624" y="96" width="9" height="9" rx="2"><title>2026-07-02</title></rect>
  <rect class="level-0" data-level="0" x="624" y="108" width="9" height="9" rx="2"><title>2026-07-03</title></rect>
  <rect class="level-0" data-level="0" x="624" y="120" width="9" height="9" rx="2"><title>2026-07-04</title></rect>
  <rect class="level-0" data-level="0" x="636" y="48" width="9" height="9" rx="2"><title>2026-07-05</title></rect>
  <rect class="level-0" data-level="0" x="636" y="60" width="9" height="9" rx="2"><title>2026-07-06</title></rect>
  <rect class="level-0" data-level="0" x="636" y="72" width="9" height="9" rx="2"><title>2026-07-07</title></rect>
  <rect class="level-0" data-level="0" x="636" y="84" width="9" height="9" rx="2"><title>2026-07-08</title></rect>
  <rect class="level-0" data-level="0" x="636" y="96" width="9" height="9" rx="2"><title>2026-07-09</title></rect>
  <rect class="level-0" data-level="0" x="636" y="108" width="9" height="9" rx="2"><title>2026-07-10</title></rect>
  <rect class="level-0" data-level="0" x="636" y="120" width="9" height="9" rx="2"><title>2026-07-11</title></rect>
  <rect class="level-0" data-level="0" x="648" y="48" width="9" height="9" rx="2"><title>2026-07-12</title></rect>
  <rect class="level-0" data-level="0" x="648" y="60" width="9" height="9" rx="2"><title>2026-07-13</title></rect>
  <rect class="level-0" data-level="0" x="648" y="72" width="9" height="9" rx="2"><title>2026-07-14</title></rect>
  <rect class="level-0" data-level="0" x="648" y="84" width="9" height="9" rx="2"><title>2026-07-15</title></rect>
  <rect class="level-0" data-level="0" x="648" y="96" width="9" height="9" rx="2"><title>2026-07-16</title></rect>
  <rect class="level-4" data-level="4" x="648" y="108" width="9" height="9" rx="2"><title>2026-07-17</title></rect>
</svg>
